<svg width="50" height="50" viewBox="0 0 50 50" fill="none" xmlns="http://www.w3.org/2000/svg">
<path d="M45 10.5263H39.55C39.825 9.71053 40 8.81579 40 7.89474C40 3.52632 36.65 0 32.5 0C29.875 0 27.6 1.42105 26.25 3.55263L25 5.31579L23.75 3.52632C22.4 1.42105 20.125 0 17.5 0C13.35 0 10 3.52632 10 7.89474C10 8.81579 10.175 9.71053 10.45 10.5263H5C2.225 10.5263 0.025 12.8684 0.025 15.7895L0 44.7368C0 47.6579 2.225 50 5 50H45C47.775 50 50 47.6579 50 44.7368V15.7895C50 12.8684 47.775 10.5263 45 10.5263ZM32.5 5.26316C33.875 5.26316 35 6.44737 35 7.89474C35 9.34211 33.875 10.5263 32.5 10.5263C31.125 10.5263 30 9.34211 30 7.89474C30 6.44737 31.125 5.26316 32.5 5.26316ZM17.5 5.26316C18.875 5.26316 20 6.44737 20 7.89474C20 9.34211 18.875 10.5263 17.5 10.5263C16.125 10.5263 15 9.34211 15 7.89474C15 6.44737 16.125 5.26316 17.5 5.26316ZM45 44.7368H5V39.4737H45V44.7368ZM45 31.5789H5V15.7895H17.7L12.5 23.2368L16.55 26.3158L22.5 17.7895L25 14.2105L27.5 17.7895L33.45 26.3158L37.5 23.2368L32.3 15.7895H45V31.5789Z" fill="#6B7D7D"/>
</svg>
