<svg width="48" height="49" viewBox="0 0 48 49" fill="none" xmlns="http://www.w3.org/2000/svg">
<path d="M45.8182 7.04545V5.95455C45.8182 2.94364 43.3745 0.5 40.3636 0.5C37.3527 0.5 34.9091 2.94364 34.9091 5.95455V7.04545C33.7091 7.04545 32.7273 8.02727 32.7273 9.22727V17.9545C32.7273 19.1545 33.7091 20.1364 34.9091 20.1364H45.8182C47.0182 20.1364 48 19.1545 48 17.9545V9.22727C48 8.02727 47.0182 7.04545 45.8182 7.04545ZM44.0727 7.04545H36.6545V5.95455C36.6545 3.90364 38.3127 2.24545 40.3636 2.24545C42.4145 2.24545 44.0727 3.90364 44.0727 5.95455V7.04545ZM39.0982 24.5C39.1855 25.22 39.2727 25.94 39.2727 26.6818C39.2727 31.22 37.5273 35.3436 34.6909 38.4418C34.1236 36.6745 32.5091 35.4091 30.5455 35.4091H28.3636V28.8636C28.3636 27.6636 27.3818 26.6818 26.1818 26.6818H13.0909V22.3182H17.4545C18.6545 22.3182 19.6364 21.3364 19.6364 20.1364V15.7727H24C26.4 15.7727 28.3636 13.8091 28.3636 11.4091V5.86727C26.2909 5.21273 24.1091 4.86364 21.8182 4.86364C9.77455 4.86364 0 14.6382 0 26.6818C0 38.7255 9.77455 48.5 21.8182 48.5C33.8618 48.5 43.6364 38.7255 43.6364 26.6818C43.6364 25.94 43.5927 25.22 43.5273 24.5H39.0982ZM19.6364 43.9836C11.0182 42.9145 4.36364 35.5836 4.36364 26.6818C4.36364 25.3291 4.53818 24.0418 4.82182 22.7764L15.2727 33.2273V35.4091C15.2727 37.8091 17.2364 39.7727 19.6364 39.7727V43.9836Z" fill="#1D3373"/>
</svg>
