<svg width="52" height="41" viewBox="0 0 52 41" fill="none" xmlns="http://www.w3.org/2000/svg">
<path d="M22.993 0.00340607C10.6459 0.00340607 0.625 8.96488 0.625 20.0067C0.625 31.0485 10.6459 40.01 22.993 40.01C35.3402 40.01 45.3611 31.0485 45.3611 20.0067C45.3611 -0.746704 68.8475 0.00342312 22.993 0.00340607ZM22.993 6.0044C26.7061 6.0044 29.7034 8.68484 29.7034 12.0054C29.7034 15.3259 26.7061 18.0064 22.993 18.0064C19.2799 18.0064 16.2826 15.3259 16.2826 12.0054C16.2826 8.68484 19.2799 6.0044 22.993 6.0044ZM22.993 34.4091C17.401 34.4091 12.4577 31.8487 9.57221 27.968C9.63932 23.9874 18.5194 21.807 22.993 21.807C27.4443 21.807 36.3467 23.9874 36.4138 27.968C33.5284 31.8487 28.585 34.4091 22.993 34.4091Z" fill="#6B7D7D"/>
</svg>
