<svg width="71" height="61" viewBox="0 0 71 61" fill="none" xmlns="http://www.w3.org/2000/svg">
<path d="M31.183 0.00510855C13.97 0.00510855 0 13.4462 0 30.0076C0 46.5689 13.97 60.01 31.183 60.01C48.396 60.01 62.366 46.5689 62.366 30.0076C62.366 -1.11996 95.1082 0.00513412 31.183 0.00510855ZM31.183 9.00585C36.3594 9.00585 40.5379 13.0262 40.5379 18.0066C40.5379 22.987 36.3594 27.0073 31.183 27.0073C26.0066 27.0073 21.8281 22.987 21.8281 18.0066C21.8281 13.0262 26.0066 9.00585 31.183 9.00585ZM31.183 51.6093C23.3873 51.6093 16.4958 47.769 12.4732 41.9485C12.5668 35.978 24.9464 32.7078 31.183 32.7078C37.3884 32.7078 49.7993 35.978 49.8928 41.9485C45.8702 47.769 38.9788 51.6093 31.183 51.6093Z" fill="#725AC1"/>
</svg>
