<svg width="30" height="31" viewBox="0 0 30 31" fill="none" xmlns="http://www.w3.org/2000/svg">
<path d="M20.8333 18.76C20.8333 21.76 16.6667 24.01 16.6667 26.26H13.3333C13.3333 24.01 9.16667 21.76 9.16667 18.76C9.16667 15.865 11.7833 13.51 15 13.51C18.2167 13.51 20.8333 15.865 20.8333 18.76ZM16.6667 27.76H13.3333V30.01H16.6667V27.76ZM26.6667 18.01C26.6667 20.53 25.6833 22.825 24.0333 24.64L26.4 26.77C28.6333 24.415 30 21.355 30 18.01C30 13.9 27.95 10.225 24.7333 7.75001L22.3667 9.88001C24.9833 11.8 26.6667 14.74 26.6667 18.01ZM21.6667 6.01001L15 0.0100098V4.51001C6.71667 4.51001 0 10.555 0 18.01C0 21.355 1.36667 24.415 3.6 26.77L5.96667 24.64C4.31667 22.825 3.33333 20.53 3.33333 18.01C3.33333 12.22 8.56667 7.51001 15 7.51001V12.01L21.6667 6.01001Z" fill="#6B7D7D"/>
</svg>
